<?xml version="1.0" standalone="no"?>
<!DOCTYPE svg PUBLIC "-//W3C//DTD SVG 20010904//EN"
 "http://www.w3.org/TR/2001/REC-SVG-20010904/DTD/svg10.dtd">
<svg version="1.0" xmlns="http://www.w3.org/2000/svg"
 width="2513.000000pt" height="2192.000000pt" viewBox="0 0 2513.000000 2192.000000"
 preserveAspectRatio="xMidYMid meet">

<g transform="translate(0.000000,2192.000000) scale(0.100000,-0.100000)"
fill="#000000" stroke="none">
<path d="M12265 16850 c-365 -18 -799 -84 -1145 -175 -1027 -268 -1918 -772
-2681 -1517 -128 -125 -282 -289 -338 -358 -20 -25 -61 -74 -92 -110 -143
-166 -384 -511 -535 -767 -88 -149 -248 -461 -303 -593 -18 -41 -36 -82 -40
-91 -25 -44 -126 -316 -179 -479 -190 -587 -282 -1172 -282 -1801 0 -904 204
-1783 597 -2574 122 -245 183 -355 296 -535 98 -156 107 -169 216 -320 547
-758 1269 -1385 2076 -1801 520 -268 993 -437 1536 -548 418 -86 716 -115
1169 -115 326 0 466 8 725 40 494 62 1011 194 1430 366 66 27 145 59 175 70
95 36 549 271 675 348 232 143 452 292 585 397 304 239 559 475 792 733 126
139 304 359 405 500 567 794 921 1670 1057 2620 43 305 51 425 51 815 0 461
-25 742 -101 1125 -271 1370 -1017 2599 -2109 3476 -1132 909 -2533 1364
-3980 1294z m696 -270 c481 -38 909 -121 1339 -262 69 -22 130 -41 135 -43 6
-1 19 -6 30 -10 11 -5 74 -29 141 -55 374 -146 644 -285 1028 -529 102 -66
286 -196 376 -268 30 -24 65 -51 77 -61 13 -9 34 -26 47 -37 13 -11 48 -40 77
-65 172 -144 444 -413 594 -586 33 -38 67 -78 77 -89 17 -19 132 -164 181
-229 12 -15 27 -33 32 -40 6 -7 15 -19 20 -29 6 -9 43 -61 83 -117 39 -55 72
-104 72 -110 0 -5 5 -10 10 -10 6 0 10 -4 10 -10 0 -5 31 -59 70 -119 38 -61
98 -164 134 -229 620 -1127 837 -2394 625 -3660 -120 -723 -388 -1427 -783
-2054 -148 -236 -399 -573 -526 -708 -8 -8 -28 -31 -43 -50 -68 -82 -367 -377
-503 -495 -79 -69 -260 -216 -319 -260 -22 -16 -41 -33 -43 -37 -2 -4 -10 -8
-18 -8 -8 0 -17 -7 -20 -15 -4 -8 -10 -15 -15 -15 -4 0 -63 -38 -129 -85 -66
-47 -122 -85 -124 -85 -2 0 -73 -42 -157 -93 -384 -232 -840 -431 -1283 -561
-1475 -434 -3054 -249 -4386 514 -262 150 -582 371 -790 546 -199 168 -289
253 -485 455 -327 338 -592 699 -868 1181 -40 69 -173 338 -224 453 -457 1025
-588 2237 -362 3360 156 778 484 1529 948 2175 69 96 256 338 271 350 3 3 39
43 79 90 120 138 379 399 481 484 19 16 58 49 87 75 28 25 64 56 80 68 15 13
48 39 73 59 25 21 79 62 120 92 41 31 77 58 80 61 3 3 13 11 22 16 9 6 70 46
135 91 279 192 620 378 928 509 99 41 191 81 205 87 14 6 32 13 40 14 9 2 34
11 55 20 22 10 45 18 50 20 12 2 263 83 285 91 8 3 20 7 25 8 6 2 100 25 210
53 288 72 619 126 935 151 154 12 655 13 811 1z"/>
<path d="M12609 16286 c-89 -32 -150 -93 -180 -181 -7 -22 -13 -79 -13 -126 0
-73 4 -94 28 -142 64 -132 208 -188 364 -142 125 38 206 191 181 345 -20 128
-82 212 -180 243 -61 20 -150 21 -200 3z m153 -66 c80 -23 134 -96 144 -199
17 -160 -66 -270 -203 -271 -65 0 -99 13 -141 53 -61 59 -80 209 -38 307 39
92 137 138 238 110z"/>
<path d="M11985 16267 c-137 -46 -198 -133 -199 -287 -1 -108 20 -173 80 -239
59 -66 115 -85 229 -79 118 6 184 48 237 148 20 39 23 59 23 150 0 86 -4 113
-21 151 -30 64 -79 116 -133 141 -57 26 -161 33 -216 15z m175 -82 c65 -34
107 -107 117 -200 17 -163 -90 -279 -236 -256 -110 17 -171 104 -171 244 0
123 48 195 149 228 32 10 107 1 141 -16z"/>
<path d="M13116 16233 c-13 -71 -68 -555 -63 -560 6 -6 370 -53 375 -48 2 1 5
18 8 37 l6 35 -152 18 -152 18 5 36 c3 20 18 134 33 255 29 237 29 236 -28
236 -21 0 -27 -6 -32 -27z"/>
<path d="M11559 16196 l-36 -11 27 -118 27 -117 -21 -6 c-142 -35 -272 -61
-277 -56 -4 4 -16 52 -28 107 -12 55 -24 105 -26 112 -3 8 -14 8 -45 1 -36 -9
-41 -14 -36 -33 3 -12 33 -141 67 -286 33 -145 62 -266 64 -267 9 -10 86 11
82 21 -17 46 -58 250 -51 257 10 9 284 74 288 69 2 -2 16 -58 30 -124 15 -66
29 -125 31 -132 3 -8 14 -8 45 -1 36 10 41 14 36 34 -3 12 -33 141 -67 286
-33 145 -63 266 -67 269 -4 3 -23 1 -43 -5z"/>
<path d="M13892 15841 c-192 -259 -207 -280 -200 -287 3 -3 21 -7 40 -10 34
-6 36 -4 83 62 27 38 49 70 51 72 1 2 54 -11 118 -29 l116 -32 0 -71 c0 -94 6
-113 38 -121 15 -3 34 -8 42 -10 14 -4 13 32 -7 313 -12 174 -22 318 -22 318
-1 1 -13 5 -28 8 -16 4 -35 9 -44 12 -12 3 -63 -58 -187 -225z m195 -138 c-4
-4 -156 36 -166 43 -3 3 108 162 138 198 15 17 17 9 24 -109 4 -70 6 -129 4
-132z"/>
<path d="M10789 16006 c-71 -25 -124 -71 -158 -136 -73 -140 22 -401 166 -456
56 -22 163 -15 218 14 89 46 134 110 142 203 8 82 2 92 -39 75 -31 -13 -33
-18 -39 -76 -7 -73 -29 -107 -89 -137 -109 -56 -204 -13 -267 122 -22 48 -27
75 -28 136 0 67 3 80 28 116 65 94 210 110 273 31 18 -23 22 -24 54 -13 21 8
34 18 32 26 -6 23 -54 70 -94 90 -44 22 -144 25 -199 5z"/>
<path d="M14363 15677 c-62 -139 -115 -260 -118 -269 -5 -12 2 -21 24 -32 16
-9 34 -16 39 -16 4 0 32 54 61 120 29 66 55 120 57 120 2 0 62 -27 134 -59
l131 -59 13 31 c7 18 11 35 7 39 -3 4 -58 30 -121 58 -63 28 -119 55 -124 60
-11 11 53 160 68 160 6 0 75 -29 154 -65 l143 -64 10 26 c5 14 12 29 14 33 5
7 -350 170 -370 170 -5 0 -60 -114 -122 -253z"/>
<path d="M10229 15765 c-65 -24 -117 -64 -145 -110 -22 -39 -26 -54 -21 -95
16 -138 95 -174 269 -125 117 34 170 33 197 -1 13 -16 21 -41 21 -65 0 -32 -6
-43 -47 -77 -84 -72 -183 -81 -237 -21 -28 32 -28 32 -63 15 l-34 -16 18 -31
c38 -65 119 -97 200 -79 51 12 140 58 177 94 83 77 86 174 7 253 -48 49 -96
52 -242 15 -66 -16 -129 -28 -140 -25 -23 6 -49 52 -49 86 0 47 65 102 141
120 37 9 87 -8 110 -37 l20 -25 34 21 35 20 -20 28 c-47 66 -141 88 -231 55z"/>
<path d="M14855 15538 c-55 -100 -119 -217 -143 -259 l-43 -78 30 -16 c17 -8
34 -15 40 -15 5 0 37 50 71 110 33 61 63 110 67 110 8 0 193 -100 223 -121 25
-17 26 -17 48 16 l22 34 -130 72 -130 71 41 77 c23 42 43 78 45 79 2 3 127
-64 251 -135 l42 -24 16 31 c9 18 15 33 13 35 -9 9 -349 195 -356 195 -4 0
-52 -82 -107 -182z"/>
<path d="M15347 15403 c-23 -37 -94 -151 -158 -253 l-116 -185 34 -23 c19 -13
36 -22 38 -20 5 5 294 468 305 488 8 15 3 22 -26 39 l-35 21 -42 -67z"/>
<path d="M9465 15298 c-93 -66 -169 -123 -168 -128 3 -11 311 -451 328 -469
11 -11 40 5 182 104 92 65 172 121 177 126 10 9 -19 59 -35 59 -6 0 -68 -40
-139 -90 -70 -49 -134 -92 -141 -95 -9 -3 -33 22 -64 67 -27 40 -51 75 -53 78
-1 4 56 46 127 96 72 49 130 92 131 96 0 4 -10 18 -22 32 l-23 25 -125 -89
c-69 -49 -128 -89 -132 -90 -4 0 -29 32 -57 72 l-50 72 37 26 c20 15 85 60
143 101 l107 75 -20 27 c-11 15 -23 27 -26 26 -4 0 -83 -55 -177 -121z"/>
<path d="M12145 15395 c-563 -59 -1032 -192 -1520 -430 -478 -234 -870 -517
-1240 -896 -177 -182 -253 -269 -383 -444 -98 -131 -252 -357 -252 -370 0 -3
-16 -31 -35 -61 -36 -56 -181 -339 -230 -449 -129 -290 -236 -639 -299 -975
-155 -828 -67 -1698 249 -2475 145 -356 346 -712 565 -998 41 -55 84 -111 95
-126 11 -15 32 -41 46 -57 15 -16 67 -74 117 -129 115 -128 195 -210 307 -314
91 -84 318 -271 330 -271 3 0 16 -9 28 -21 12 -11 67 -51 122 -87 55 -37 102
-70 105 -73 19 -21 294 -176 452 -254 151 -75 357 -165 388 -170 3 -1 23 -9
44 -18 70 -31 317 -106 461 -142 271 -66 558 -109 790 -120 66 -3 152 -8 190
-11 179 -14 662 28 935 81 159 31 469 112 487 127 7 6 13 7 13 3 0 -4 7 -2 15
5 8 7 15 10 15 7 0 -6 172 53 245 84 17 6 35 13 40 14 53 13 404 185 560 275
113 65 372 235 436 286 20 16 51 40 69 54 211 158 482 420 709 685 94 111 347
470 392 557 8 15 42 75 76 135 76 132 168 326 235 493 394 986 422 2080 78
3084 -190 553 -493 1075 -876 1506 -175 198 -549 550 -584 550 -5 0 -10 4 -10
8 0 10 -103 88 -245 184 -590 402 -1255 651 -1985 744 -174 22 -757 28 -935 9z
m785 -66 c30 -4 114 -15 185 -24 184 -22 180 -22 285 -43 52 -11 109 -23 125
-25 17 -3 98 -24 180 -47 83 -23 155 -43 160 -44 6 -1 15 -4 20 -7 6 -4 48
-19 95 -34 450 -147 986 -445 1356 -754 17 -14 52 -44 79 -66 134 -112 334
-311 466 -465 549 -637 904 -1420 1023 -2250 54 -379 54 -839 0 -1220 -36
-254 -99 -523 -180 -766 -98 -295 -192 -502 -382 -844 -67 -120 -314 -472
-389 -555 -10 -11 -36 -43 -58 -70 -72 -91 -378 -395 -495 -494 -274 -231
-514 -391 -825 -552 -427 -221 -831 -356 -1300 -433 -277 -46 -353 -51 -720
-51 -308 1 -370 3 -520 24 -600 80 -1104 246 -1609 529 -81 45 -181 105 -222
132 -40 28 -77 50 -83 50 -5 0 -11 4 -13 8 -1 5 -34 30 -73 57 -338 234 -721
608 -983 960 -477 640 -761 1370 -848 2180 -32 296 -23 729 22 1045 105 747
424 1498 882 2078 553 701 1262 1200 2097 1476 126 42 422 122 485 131 14 2
77 13 140 24 108 19 332 46 445 55 87 6 598 2 655 -5z"/>
<path d="M12453 14240 c-200 -142 -211 -151 -217 -187 -3 -21 -6 -298 -6 -615
0 -544 1 -578 18 -577 9 0 73 17 142 37 l125 37 3 591 2 591 75 53 75 53 0 84
c0 45 -1 83 -3 83 -2 0 -98 -67 -214 -150z"/>
<path d="M12827 14208 l-227 -133 0 -552 c0 -520 1 -552 18 -548 41 8 147 53
290 121 l152 74 0 585 c0 322 -1 585 -3 585 -1 0 -105 -60 -230 -132z"/>
<path d="M13495 14065 c-33 -7 -69 -15 -80 -17 -11 -3 30 -3 92 0 120 5 175
-7 223 -48 64 -56 12 -247 -115 -419 -53 -72 -165 -187 -240 -248 -139 -112
-367 -243 -586 -336 -101 -43 -266 -105 -299 -112 -8 -2 -55 -15 -105 -28
-300 -85 -575 -117 -710 -82 -200 52 -153 224 144 535 44 47 81 86 81 87 0 5
-58 -23 -105 -51 -143 -86 -273 -185 -356 -274 -129 -136 -174 -225 -174 -342
0 -50 6 -85 17 -105 44 -80 142 -140 282 -170 113 -25 366 -16 526 18 560 122
1264 499 1536 822 21 26 45 58 52 72 l14 26 -34 -26 c-18 -13 -51 -34 -74 -45
-37 -19 -32 -12 50 71 177 177 266 390 226 537 -18 66 -80 124 -148 139 -67
14 -141 13 -217 -4z"/>
<path d="M13034 12806 c-30 -21 -284 -146 -366 -181 l-68 -28 0 -458 0 -458
113 65 c61 36 163 95 225 131 63 36 116 71 118 77 2 6 3 203 2 439 l-3 427
-21 -14z"/>
<path d="M12375 12517 c-66 -21 -126 -41 -132 -43 -10 -3 -13 -89 -13 -389 0
-212 3 -385 8 -385 4 0 68 36 142 79 l135 79 3 351 c2 278 0 351 -10 349 -7 0
-67 -19 -133 -41z"/>
<path d="M11348 10598 l-3 -133 -85 -2 c-47 -1 -89 -2 -95 -2 -6 -1 -9 -46 -7
-121 l3 -120 -1066 0 -1066 0 3 -27 c3 -24 8 -28 38 -29 77 -3 70 20 70 -219
l0 -214 -122 -3 -123 -3 -3 -353 -2 -352 3672 2 3673 3 3 353 2 352 -125 0
-125 0 0 214 0 215 53 3 c48 3 52 5 55 31 l3 27 -1065 0 -1066 0 0 123 0 122
-81 -2 c-44 -1 -87 1 -95 4 -11 4 -14 32 -14 134 l0 129 -35 0 -35 0 0 -135 0
-134 -85 2 -85 2 0 -122 0 -123 -976 0 -975 0 2 123 1 122 -86 -3 -86 -3 0
135 0 136 -35 0 -34 0 -3 -132z m47 -163 c0 -206 -3 -269 -12 -272 -10 -4 -13
55 -13 272 0 217 3 276 13 273 9 -4 12 -67 12 -273z m2365 -1 c0 -216 -3 -275
-12 -272 -10 4 -14 67 -16 264 -1 142 0 264 3 271 2 7 9 13 15 13 7 0 10 -93
10 -276z m-2410 -145 l0 -149 35 0 34 0 3 151 3 152 58 -1 c31 0 64 -1 72 -1
13 -1 15 -86 15 -701 l0 -700 -195 0 -195 0 0 700 0 699 78 3 c42 2 80 2 85 0
4 -2 7 -70 7 -153z m2360 1 l0 -150 35 0 35 0 0 150 0 150 85 0 85 0 0 -700 0
-700 -195 0 -195 0 0 700 0 700 75 0 75 0 0 -150z m-2553 -96 c-8 -8 -2097 -7
-2105 0 -3 3 471 6 1053 6 582 0 1056 -3 1052 -6z m1069 -1 c-8 -8 -626 -7
-634 1 -3 4 140 6 318 6 178 0 320 -3 316 -7z m92 -570 l-3 -578 -32 -3 -33
-3 0 580 0 581 35 0 35 0 -2 -577z m469 571 c-8 -8 -437 -8 -445 0 -3 3 97 6
223 6 126 0 226 -3 222 -6z m91 -571 l-3 -578 -32 -3 -33 -3 0 580 0 581 35 0
35 0 -2 -577z m660 571 c-8 -7 -628 -8 -635 0 -4 3 139 6 317 6 178 0 321 -2
318 -6z m2537 -5 c-8 -12 -2093 -10 -2101 3 -3 4 470 8 1051 8 739 0 1054 -3
1050 -11z m-6732 -27 c14 -4 17 -16 17 -83 l0 -79 -90 0 -90 0 0 78 c0 43 3
82 7 86 8 7 125 6 156 -2z m240 -1 c4 0 7 -36 5 -78 l-3 -78 -87 -3 -88 -3 0
80 c0 53 4 81 12 83 10 4 137 3 161 -1z m225 -78 l3 -83 -91 0 -90 0 0 79 c0
54 4 81 13 84 6 3 46 4 87 3 l75 -1 3 -82z m209 79 c7 -4 13 -39 15 -82 l3
-75 -87 -3 -88 -3 0 79 c0 43 2 81 5 83 8 8 140 9 152 1z m241 -79 l3 -83 -91
0 -90 0 0 79 c0 55 4 81 13 84 6 2 46 3 87 3 l75 -1 3 -82z m222 0 l0 -83 -85
0 -85 0 0 85 0 85 85 -1 85 -2 0 -84z m228 0 l3 -83 -91 0 -90 0 0 79 c0 45 4
81 10 83 6 2 45 3 88 3 l77 0 3 -82z m193 82 c29 -7 29 -7 29 -86 l0 -79 -85
0 c-74 0 -85 2 -86 18 -2 34 2 136 6 142 6 9 101 12 136 5z m257 -85 l3 -80
-91 0 -90 0 0 78 c0 43 3 81 6 84 3 4 42 5 87 3 l82 -4 3 -81z m700 62 c-3
-14 -19 -17 -111 -20 -99 -2 -107 -1 -107 16 0 10 2 21 4 23 2 2 52 3 111 1
93 -3 106 -5 103 -20z m50 -542 c-2 -432 -6 -554 -15 -558 -10 -3 -13 113 -13
556 0 307 3 562 7 566 4 3 10 3 15 -2 4 -4 7 -257 6 -562z m315 561 c4 -1 7
-21 7 -46 l0 -45 -150 0 -150 0 0 43 c0 24 2 46 4 48 3 3 248 3 289 0z m555 0
c8 -1 12 -17 12 -46 l0 -45 -225 0 -225 0 0 43 c0 24 2 46 4 48 3 3 377 3 434
0z m422 -42 l0 -49 -150 0 -150 0 0 44 c0 24 5 46 10 48 6 2 74 3 150 4 l140
1 0 -48z m50 -520 c0 -444 -3 -560 -12 -557 -10 4 -14 125 -16 554 -1 302 0
555 3 562 3 7 9 10 15 7 6 -4 10 -201 10 -566z m238 542 c3 -21 2 -22 -105
-19 -92 3 -108 5 -111 20 -3 15 8 18 85 20 127 4 128 4 131 -21z m660 -60 l3
-81 -91 0 -90 0 0 78 c0 43 2 81 4 83 2 2 42 3 88 2 l83 -1 3 -81z m223 38 c4
-129 11 -119 -86 -119 l-85 0 0 78 c0 43 2 81 4 83 2 2 41 3 85 1 l81 -4 1
-39z m-4984 -171 c-1 -40 -3 -8 -3 72 0 80 2 112 3 73 2 -40 2 -106 0 -145z
m450 75 c-2 -27 -3 -5 -3 47 0 52 1 74 3 48 2 -27 2 -69 0 -95z m1120 70 c-2
-16 -4 -5 -4 22 0 28 2 40 4 28 2 -13 2 -35 0 -50z m661 -488 c-2 -362 -6
-555 -13 -555 -7 0 -11 193 -13 555 -2 491 0 555 13 555 13 0 15 -64 13 -555z
m1920 0 c-2 -362 -6 -555 -13 -555 -7 0 -11 193 -13 555 -2 491 0 555 13 555
13 0 15 -64 13 -555z m639 473 c-2 -18 -4 -6 -4 27 0 33 2 48 4 33 2 -15 2
-42 0 -60z m423 2 l0 -80 -90 0 -90 0 0 80 0 80 90 0 90 0 0 -80z m220 0 l0
-80 -85 0 -85 0 0 80 0 80 85 0 85 0 0 -80z m27 13 c-2 -16 -4 -5 -4 22 0 28
2 40 4 28 2 -13 2 -35 0 -50z m203 -13 l0 -80 -90 0 -90 0 0 80 0 80 90 0 90
0 0 -80z m220 0 l0 -80 -85 0 c-47 0 -85 3 -86 8 -5 33 -8 129 -4 140 3 8 31
12 90 12 l85 0 0 -80z m27 -42 c-2 -24 -4 -5 -4 42 0 47 2 66 4 43 2 -24 2
-62 0 -85z m203 42 l0 -80 -90 0 -90 0 0 80 0 80 90 0 90 0 0 -80z m220 0 l0
-81 -87 3 -88 3 -3 78 -3 77 91 0 90 0 0 -80z m27 -242 c-1 -62 -3 -14 -3 107
0 121 2 172 3 113 2 -59 2 -158 0 -220z m203 242 l0 -80 -90 0 -90 0 0 80 0
80 90 0 90 0 0 -80z m-5663 28 c-3 -7 -5 -2 -5 12 0 14 2 19 5 13 2 -7 2 -19
0 -25z m1571 -55 l-3 -48 -107 -3 -108 -3 0 51 0 50 111 0 110 0 -3 -47z
m1630 0 l-3 -48 -105 0 -105 0 -3 48 -3 47 111 0 111 0 -3 -47z m-3201 -15
c-2 -13 -4 -5 -4 17 -1 22 1 32 4 23 2 -10 2 -28 0 -40z m4560 -10 c-3 -7 -5
-2 -5 12 0 14 2 19 5 13 2 -7 2 -19 0 -25z m-2617 -38 l0 -60 -150 0 -150 0 0
60 0 60 150 0 150 0 0 -60z m560 0 l0 -60 -225 0 -225 0 0 60 0 60 225 0 225
0 0 -60z m410 0 l0 -60 -150 0 -150 0 0 60 0 60 150 0 150 0 0 -60z m-2243 3
c-3 -10 -5 -2 -5 17 0 19 2 27 5 18 2 -10 2 -26 0 -35z m-670 -5 c-3 -8 -6 -5
-6 6 -1 11 2 17 5 13 3 -3 4 -12 1 -19z m4560 -10 c-3 -8 -6 -5 -6 6 -1 11 2
17 5 13 3 -3 4 -12 1 -19z m-1357 -9 c0 -12 -207 -11 -215 1 -3 5 31 10 87 12
101 3 128 0 128 -13z m687 -16 c-3 -10 -5 -4 -5 12 0 17 2 24 5 18 2 -7 2 -21
0 -30z m1120 -25 c-2 -13 -4 -3 -4 22 0 25 2 35 4 23 2 -13 2 -33 0 -45z
m-5937 42 c0 -6 -37 -10 -90 -10 -53 0 -90 4 -90 10 0 6 37 10 90 10 53 0 90
-4 90 -10z m225 0 c-3 -5 -44 -10 -91 -10 -49 0 -84 4 -84 10 0 6 37 10 91 10
57 0 88 -4 84 -10z m225 0 c0 -6 -37 -10 -90 -10 -53 0 -90 4 -90 10 0 6 37
10 90 10 53 0 90 -4 90 -10z m220 0 c0 -6 -35 -10 -85 -10 -50 0 -85 4 -85 10
0 6 35 10 85 10 50 0 85 -4 85 -10z m230 0 c0 -6 -37 -10 -90 -10 -53 0 -90 4
-90 10 0 6 37 10 90 10 53 0 90 -4 90 -10z m220 0 c0 -6 -35 -10 -85 -10 -50
0 -85 4 -85 10 0 6 35 10 85 10 50 0 85 -4 85 -10z m230 0 c0 -6 -37 -10 -90
-10 -53 0 -90 4 -90 10 0 6 37 10 90 10 53 0 90 -4 90 -10z m220 0 c0 -6 -35
-10 -85 -10 -50 0 -85 4 -85 10 0 6 35 10 85 10 50 0 85 -4 85 -10z m230 0 c0
-6 -37 -10 -90 -10 -53 0 -90 4 -90 10 0 6 37 10 90 10 53 0 90 -4 90 -10z
m695 0 c-8 -13 -215 -12 -215 1 0 5 50 9 111 9 74 0 108 -3 104 -10z m2295 0
c0 -6 -37 -10 -90 -10 -53 0 -90 4 -90 10 0 6 37 10 90 10 53 0 90 -4 90 -10z
m220 0 c0 -6 -35 -10 -85 -10 -50 0 -85 4 -85 10 0 6 35 10 85 10 50 0 85 -4
85 -10z m230 0 c0 -6 -37 -10 -90 -10 -53 0 -90 4 -90 10 0 6 37 10 90 10 53
0 90 -4 90 -10z m220 0 c0 -6 -35 -10 -85 -10 -50 0 -85 4 -85 10 0 6 35 10
85 10 50 0 85 -4 85 -10z m230 0 c0 -6 -37 -10 -90 -10 -53 0 -90 4 -90 10 0
6 37 10 90 10 53 0 90 -4 90 -10z m220 0 c0 -6 -35 -10 -85 -10 -50 0 -85 4
-85 10 0 6 35 10 85 10 50 0 85 -4 85 -10z m230 0 c0 -6 -37 -10 -90 -10 -53
0 -90 4 -90 10 0 6 37 10 90 10 53 0 90 -4 90 -10z m220 0 c0 -6 -35 -10 -84
-10 -47 0 -88 5 -91 10 -4 6 27 10 84 10 54 0 91 -4 91 -10z m230 0 c0 -6 -37
-10 -90 -10 -53 0 -90 4 -90 10 0 6 37 10 90 10 53 0 90 -4 90 -10z m-5663
-37 c-3 -10 -5 -4 -5 12 0 17 2 24 5 18 2 -7 2 -21 0 -30z m-450 -30 c-3 -10
-5 -2 -5 17 0 19 2 27 5 18 2 -10 2 -26 0 -35z m1120 0 c-3 -10 -5 -2 -5 17 0
19 2 27 5 18 2 -10 2 -26 0 -35z m-1597 -3 l0 -41 -87 3 -88 3 -3 38 -3 37 90
0 91 0 0 -40z m228 3 l-3 -38 -87 -3 -88 -3 0 41 0 40 91 0 90 0 -3 -37z m220
0 l-3 -38 -85 0 -85 0 -3 38 -3 37 91 0 91 0 -3 -37z m222 -3 l0 -40 -85 0
-85 0 0 40 0 40 85 0 85 0 0 -40z m230 0 l0 -41 -87 3 -88 3 -3 38 -3 37 90 0
91 0 0 -40z m220 0 l0 -40 -85 0 -85 0 0 40 0 40 85 0 85 0 0 -40z m228 3 l-3
-38 -85 0 -85 0 -3 38 -3 37 91 0 91 0 -3 -37z m222 -3 l0 -40 -84 0 c-80 0
-84 1 -90 24 -12 49 -1 56 90 56 l84 0 0 -40z m228 3 l-3 -38 -85 0 -85 0 -3
38 -3 37 91 0 91 0 -3 -37z m700 -10 l-3 -48 -107 -3 -108 -3 0 51 0 50 111 0
110 0 -3 -47z m1632 -3 l0 -51 -107 3 -108 3 -3 48 -3 47 110 0 111 0 0 -50z
m660 10 l0 -41 -87 3 -88 3 -3 38 -3 37 90 0 91 0 0 -40z m222 18 c9 -54 3
-58 -88 -58 l-84 0 0 40 0 40 84 0 c79 0 84 -1 88 -22z m226 -15 l-3 -38 -85
0 -85 0 -3 38 -3 37 91 0 91 0 -3 -37z m222 -3 l0 -40 -85 0 -85 0 0 40 0 40
85 0 85 0 0 -40z m27 3 c-3 -10 -5 -4 -5 12 0 17 2 24 5 18 2 -7 2 -21 0 -30z
m201 0 l-3 -38 -87 -3 -88 -3 0 41 0 40 91 0 90 0 -3 -37z m222 -3 l0 -40 -85
0 c-49 0 -85 4 -86 10 -1 6 -1 19 -1 30 0 11 0 25 1 30 1 6 37 10 86 10 l85 0
0 -40z m228 3 l-3 -38 -85 0 -85 0 -3 38 -3 37 91 0 91 0 -3 -37z m222 -3 l0
-41 -87 3 -88 3 -3 38 -3 37 90 0 91 0 0 -40z m228 3 l-3 -38 -87 -3 -88 -3 0
41 0 40 91 0 90 0 -3 -37z m-1771 -5 c-3 -7 -5 -2 -5 12 0 14 2 19 5 13 2 -7
2 -19 0 -25z m-1947 -43 l0 -55 -150 0 -150 0 0 55 0 55 150 0 150 0 0 -55z
m560 0 l0 -55 -225 0 -225 0 0 55 0 55 225 0 225 0 0 -55z m410 0 l0 -55 -150
0 -150 0 0 55 0 55 150 0 150 0 0 -55z m2097 -88 c-2 -23 -3 -1 -3 48 0 50 1
68 3 42 2 -26 2 -67 0 -90z m-4340 91 c-3 -8 -6 -5 -6 6 -1 11 2 17 5 13 3 -3
4 -12 1 -19z m-1120 -45 c-3 -10 -5 -4 -5 12 0 17 2 24 5 18 2 -7 2 -21 0 -30z
m-477 17 c0 -6 -35 -10 -84 -10 -47 0 -88 5 -91 10 -4 6 27 10 84 10 54 0 91
-4 91 -10z m27 -72 c-2 -18 -4 -6 -4 27 0 33 2 48 4 33 2 -15 2 -42 0 -60z
m198 72 c-3 -5 -44 -10 -91 -10 -49 0 -84 4 -84 10 0 6 37 10 91 10 57 0 88
-4 84 -10z m225 0 c0 -6 -35 -10 -84 -10 -47 0 -88 5 -91 10 -4 6 27 10 84 10
54 0 91 -4 91 -10z m220 0 c0 -6 -35 -10 -85 -10 -50 0 -85 4 -85 10 0 6 35
10 85 10 50 0 85 -4 85 -10z m225 0 c-3 -5 -42 -10 -85 -10 -43 0 -82 5 -85
10 -4 6 27 10 85 10 58 0 89 -4 85 -10z m225 0 c0 -6 -35 -10 -85 -10 -50 0
-85 4 -85 10 0 6 35 10 85 10 50 0 85 -4 85 -10z m225 0 c-3 -5 -42 -10 -85
-10 -43 0 -82 5 -85 10 -4 6 27 10 85 10 58 0 89 -4 85 -10z m225 0 c0 -6 -35
-10 -85 -10 -50 0 -85 4 -85 10 0 6 35 10 85 10 50 0 85 -4 85 -10z m27 -22
c-3 -7 -5 -2 -5 12 0 14 2 19 5 13 2 -7 2 -19 0 -25z m198 22 c-3 -5 -42 -10
-85 -10 -43 0 -82 5 -85 10 -4 6 27 10 85 10 58 0 89 -4 85 -10z m2995 0 c0
-6 -35 -10 -84 -10 -47 0 -88 5 -91 10 -4 6 27 10 84 10 54 0 91 -4 91 -10z
m220 0 c0 -6 -35 -10 -85 -10 -50 0 -85 4 -85 10 0 6 35 10 85 10 50 0 85 -4
85 -10z m225 0 c-3 -5 -42 -10 -85 -10 -43 0 -82 5 -85 10 -4 6 27 10 85 10
58 0 89 -4 85 -10z m225 0 c0 -6 -35 -10 -85 -10 -50 0 -85 4 -85 10 0 6 35
10 85 10 50 0 85 -4 85 -10z m27 -22 c-3 -7 -5 -2 -5 12 0 14 2 19 5 13 2 -7
2 -19 0 -25z m198 22 c-3 -5 -42 -10 -85 -10 -43 0 -82 5 -85 10 -4 6 27 10
85 10 58 0 89 -4 85 -10z m225 0 c0 -6 -35 -10 -85 -10 -50 0 -85 4 -85 10 0
6 35 10 85 10 50 0 85 -4 85 -10z m225 0 c-3 -5 -42 -10 -85 -10 -43 0 -82 5
-85 10 -4 6 27 10 85 10 58 0 89 -4 85 -10z m225 0 c0 -6 -35 -10 -84 -10 -47
0 -88 5 -91 10 -4 6 27 10 84 10 54 0 91 -4 91 -10z m225 0 c-3 -5 -44 -10
-91 -10 -49 0 -84 4 -84 10 0 6 37 10 91 10 57 0 88 -4 84 -10z m-5658 -22
c-3 -8 -6 -5 -6 6 -1 11 2 17 5 13 3 -3 4 -12 1 -19z m3203 1 c0 -12 -207 -11
-215 1 -3 5 31 10 87 12 101 3 128 0 128 -13z m687 -11 c-3 -7 -5 -2 -5 12 0
14 2 19 5 13 2 -7 2 -19 0 -25z m-2322 12 c-3 -6 -52 -10 -111 -10 -63 0 -104
4 -104 10 0 6 44 10 111 10 71 0 108 -4 104 -10z m-2495 -45 l0 -35 -90 0 -90
0 0 35 0 35 90 0 90 0 0 -35z m230 0 l0 -35 -90 0 -90 0 0 35 0 35 90 0 90 0
0 -35z m220 0 l0 -35 -90 0 -90 0 0 35 0 35 90 0 90 0 0 -35z m223 8 c3 -16 3
-31 0 -35 -2 -5 -42 -8 -89 -8 l-84 0 0 35 0 35 84 0 c83 0 84 0 89 -27z m227
-8 l0 -35 -90 0 -90 0 0 35 0 35 90 0 90 0 0 -35z m220 0 l0 -35 -85 0 -85 0
0 35 0 35 85 0 85 0 0 -35z m230 0 l0 -35 -90 0 -90 0 0 35 0 35 90 0 90 0 0
-35z m220 0 l0 -36 -87 3 -86 3 -1 33 -1 32 88 0 87 0 0 -35z m230 0 l0 -35
-90 0 -90 0 0 35 0 35 90 0 90 0 0 -35z m2990 0 l0 -35 -90 0 -90 0 0 35 0 35
90 0 90 0 0 -35z m220 0 l0 -35 -85 0 -85 0 0 35 0 35 85 0 85 0 0 -35z m230
0 l0 -35 -90 0 -90 0 0 35 0 35 90 0 90 0 0 -35z m220 0 l0 -35 -85 0 -85 0 0
35 0 35 85 0 85 0 0 -35z m230 0 l0 -35 -90 0 -90 0 0 35 0 35 90 0 90 0 0
-35z m220 0 l0 -35 -89 0 c-86 0 -88 1 -86 23 1 12 3 28 4 35 1 8 25 12 86 12
l85 0 0 -35z m230 0 l0 -35 -90 0 -90 0 0 35 0 35 90 0 90 0 0 -35z m220 0 l0
-35 -90 0 -90 0 0 35 0 35 90 0 90 0 0 -35z m230 0 l0 -35 -90 0 -90 0 0 35 0
35 90 0 90 0 0 -35z m-6113 -7 c-3 -7 -5 -2 -5 12 0 14 2 19 5 13 2 -7 2 -19
0 -25z m5010 0 c-3 -7 -5 -2 -5 12 0 14 2 19 5 13 2 -7 2 -19 0 -25z m-2989
-25 l-3 -48 -107 -3 -108 -3 0 51 0 50 111 0 110 0 -3 -47z m372 32 c0 -13
-23 -15 -150 -15 -127 0 -150 2 -150 15 0 13 23 15 150 15 127 0 150 -2 150
-15z m560 0 c0 -13 -32 -15 -225 -15 -193 0 -225 2 -225 15 0 13 32 15 225 15
193 0 225 -2 225 -15z m410 0 c0 -13 -23 -15 -150 -15 -127 0 -150 2 -150 15
0 13 23 15 150 15 127 0 150 -2 150 -15z m290 -35 l0 -51 -107 3 -108 3 -3 48
-3 47 110 0 111 0 0 -50z m-3203 18 c-3 -8 -6 -5 -6 6 -1 11 2 17 5 13 3 -3 4
-12 1 -19z m3890 -40 c-3 -7 -5 -2 -5 12 0 14 2 19 5 13 2 -7 2 -19 0 -25z
m-1947 -38 l0 -60 -150 0 -150 0 0 60 0 60 150 0 150 0 0 -60z m560 0 l0 -60
-225 0 -225 0 0 60 0 60 225 0 225 0 0 -60z m410 0 l0 -60 -150 0 -150 0 0 60
0 60 150 0 150 0 0 -60z m-2243 -2 c-2 -13 -4 -5 -4 17 -1 22 1 32 4 23 2 -10
2 -28 0 -40z m-27 32 c0 -5 -43 -11 -96 -12 l-97 -3 -1 -320 -1 -320 -25 0
c-23 0 -25 4 -28 48 l-3 48 -86 -3 -87 -3 0 -45 c-1 -39 -4 -45 -23 -48 -21
-3 -23 0 -23 48 l0 51 -87 -3 -88 -3 -3 -47 c-3 -39 -7 -48 -22 -48 -15 0 -19
9 -22 48 l-3 47 -89 0 -89 0 -1 -45 c-1 -38 -4 -45 -21 -45 -17 0 -20 8 -23
48 l-3 48 -87 -3 -87 -3 -3 -47 c-3 -39 -7 -48 -22 -48 -15 0 -19 9 -22 48
l-3 47 -87 3 -88 3 0 -51 c0 -48 -2 -51 -22 -48 -20 3 -23 10 -26 51 l-3 48
-86 -3 -87 -3 0 -45 c-1 -39 -4 -45 -23 -48 -21 -3 -23 0 -23 48 l0 51 -87 -3
-88 -3 -3 -47 c-3 -39 -7 -48 -22 -48 -15 0 -19 9 -22 48 l-3 47 -87 3 -87 3
-3 -47 c-2 -27 -8 -49 -15 -52 -10 -3 -13 68 -13 332 l0 336 1010 0 c617 0
1010 -4 1010 -10z m225 0 c4 -6 -27 -10 -84 -10 -54 0 -91 4 -91 10 0 6 35 10
84 10 47 0 88 -4 91 -10z m2995 0 c0 -6 -37 -10 -91 -10 -57 0 -88 4 -84 10 3
6 44 10 91 10 49 0 84 -4 84 -10z m2068 -322 c-2 -214 -7 -333 -13 -333 -5 0
-11 22 -13 48 l-3 48 -87 -3 -87 -3 -3 -47 c-3 -39 -7 -48 -22 -48 -15 0 -19
9 -22 48 l-3 47 -87 3 -88 3 0 -51 c0 -48 -2 -51 -22 -48 -20 3 -23 10 -26 51
l-3 48 -86 -3 -87 -3 0 -45 c-1 -39 -4 -45 -23 -48 -21 -3 -23 0 -23 48 l0 51
-87 -3 -88 -3 -3 -47 c-3 -39 -7 -48 -22 -48 -15 0 -19 9 -22 48 l-3 47 -89 0
-89 0 -1 -45 c-1 -38 -4 -45 -21 -45 -17 0 -20 8 -23 48 l-3 48 -87 -3 -87 -3
-3 -47 c-3 -39 -7 -48 -22 -48 -15 0 -19 9 -22 48 l-3 47 -87 3 -88 3 0 -51
c0 -48 -2 -51 -22 -48 -20 3 -23 10 -26 51 l-3 48 -86 -3 -87 -3 0 -45 c-1
-35 -5 -45 -20 -48 -10 -2 -23 2 -27 10 -5 7 -9 153 -8 323 l1 310 -96 3 c-53
1 -96 7 -96 12 0 6 393 10 1010 10 l1010 0 -2 -332z m-2041 280 c-3 -7 -5 -2
-5 12 0 14 2 19 5 13 2 -7 2 -19 0 -25z m-3247 -28 l0 -40 -85 0 -85 0 0 40 0
40 85 0 85 0 0 -40z m228 -2 l3 -38 -90 0 -91 0 0 40 0 41 88 -3 87 -3 3 -37z
m2992 2 l0 -40 -90 0 -90 0 0 33 c0 19 3 37 7 40 3 4 44 7 90 7 l83 0 0 -40z
m220 0 l0 -40 -85 0 -85 0 0 40 0 40 85 0 85 0 0 -40z m-2515 20 c-3 -6 -52
-10 -111 -10 -63 0 -104 4 -104 10 0 6 44 10 111 10 71 0 108 -4 104 -10z
m1635 0 c0 -6 -41 -10 -104 -10 -59 0 -108 4 -111 10 -4 6 33 10 104 10 67 0
111 -4 111 -10z m-2533 -77 c-3 -10 -5 -2 -5 17 0 19 2 27 5 18 2 -10 2 -26 0
-35z m901 0 l-3 -48 -107 -3 -108 -3 0 51 0 50 111 0 110 0 -3 -47z m1632 -3
l0 -51 -107 3 -108 3 -3 48 -3 47 110 0 111 0 0 -50z m687 -67 c-2 -21 -4 -6
-4 32 0 39 2 55 4 38 2 -18 2 -50 0 -70z m-1947 72 c0 -13 -23 -15 -150 -15
-127 0 -150 2 -150 15 0 13 23 15 150 15 127 0 150 -2 150 -15z m560 0 c0 -13
-32 -15 -225 -15 -193 0 -225 2 -225 15 0 13 32 15 225 15 193 0 225 -2 225
-15z m410 0 c0 -13 -23 -15 -150 -15 -127 0 -150 2 -150 15 0 13 23 15 150 15
127 0 150 -2 150 -15z m-2270 -15 c0 -6 -35 -10 -85 -10 -50 0 -85 4 -85 10 0
6 35 10 85 10 50 0 85 -4 85 -10z m230 0 c0 -6 -37 -10 -90 -10 -53 0 -90 4
-90 10 0 6 37 10 90 10 53 0 90 -4 90 -10z m2990 0 c0 -6 -37 -10 -90 -10 -53
0 -90 4 -90 10 0 6 37 10 90 10 53 0 90 -4 90 -10z m220 0 c0 -6 -35 -10 -85
-10 -50 0 -85 4 -85 10 0 6 35 10 85 10 50 0 85 -4 85 -10z m-3413 -47 c-3
-10 -5 -4 -5 12 0 17 2 24 5 18 2 -7 2 -21 0 -30z m1273 -223 l0 -250 -150 0
-150 0 0 250 0 250 150 0 150 0 0 -250z m560 0 l0 -250 -225 0 -225 0 0 250 0
250 225 0 225 0 0 -250z m410 0 l0 -250 -150 0 -150 0 0 250 0 250 150 0 150
0 0 -250z m-2270 200 l0 -40 -84 0 -84 0 -4 28 c-7 49 -2 52 88 52 l84 0 0
-40z m228 3 l-3 -38 -87 -3 -88 -3 0 41 0 40 91 0 90 0 -3 -37z m2992 -3 l0
-41 -87 3 -88 3 -3 38 -3 37 90 0 91 0 0 -40z m220 0 l0 -40 -85 0 -85 0 0 40
0 40 85 0 85 0 0 -40z m-2515 0 c-3 -6 -52 -10 -111 -10 -63 0 -104 4 -104 10
0 6 44 10 111 10 71 0 108 -4 104 -10z m1635 0 c0 -6 -41 -10 -104 -10 -59 0
-108 4 -111 10 -4 6 33 10 104 10 67 0 111 -4 111 -10z m-2533 -52 c-3 -7 -5
-2 -5 12 0 14 2 19 5 13 2 -7 2 -19 0 -25z m901 -25 l-3 -48 -107 -3 -108 -3
0 51 0 50 111 0 110 0 -3 -47z m1632 -3 l0 -51 -107 3 -108 3 -3 48 -3 47 110
0 111 0 0 -50z m687 -12 c-2 -13 -4 -3 -4 22 0 25 2 35 4 23 2 -13 2 -33 0
-45z m-3247 22 c0 -6 -35 -10 -85 -10 -50 0 -85 4 -85 10 0 6 35 10 85 10 50
0 85 -4 85 -10z m225 0 c-3 -5 -44 -10 -91 -10 -49 0 -84 4 -84 10 0 6 37 10
91 10 57 0 88 -4 84 -10z m2995 0 c0 -6 -35 -10 -84 -10 -47 0 -88 5 -91 10
-4 6 27 10 84 10 54 0 91 -4 91 -10z m220 0 c0 -6 -35 -10 -85 -10 -50 0 -85
4 -85 10 0 6 35 10 85 10 50 0 85 -4 85 -10z m-3413 -37 c-3 -10 -5 -4 -5 12
0 17 2 24 5 18 2 -7 2 -21 0 -30z m-27 -28 l0 -35 -85 0 -85 0 0 35 0 35 85 0
85 0 0 -35z m230 0 l0 -35 -90 0 -90 0 0 35 0 35 90 0 90 0 0 -35z m2990 0 l0
-35 -90 0 -90 0 0 35 0 35 90 0 90 0 0 -35z m220 0 l0 -35 -85 0 -85 0 0 35 0
35 85 0 85 0 0 -35z m-193 -17 c-3 -7 -5 -2 -5 12 0 14 2 19 5 13 2 -7 2 -19
0 -25z m-3220 0 c-3 -8 -6 -5 -6 6 -1 11 2 17 5 13 3 -3 4 -12 1 -19z m898 -8
c-3 -6 -52 -10 -111 -10 -63 0 -104 4 -104 10 0 6 44 10 111 10 71 0 108 -4
104 -10z m1635 0 c0 -6 -41 -10 -104 -10 -59 0 -108 4 -111 10 -4 6 33 10 104
10 67 0 111 -4 111 -10z m-2533 -132 c-2 -24 -4 -7 -4 37 0 44 2 63 4 43 2
-21 2 -57 0 -80z m-27 92 c0 -6 -35 -10 -85 -10 -50 0 -85 4 -85 10 0 6 35 10
85 10 50 0 85 -4 85 -10z m225 0 c4 -6 -27 -10 -84 -10 -54 0 -91 4 -91 10 0
6 35 10 84 10 47 0 88 -4 91 -10z m703 -37 l-3 -48 -107 -3 -108 -3 0 51 0 50
111 0 110 0 -3 -47z m1632 -3 l0 -51 -107 3 -108 3 -3 48 -3 47 110 0 111 0 0
-50z m660 40 c0 -6 -37 -10 -91 -10 -57 0 -88 4 -84 10 3 6 44 10 91 10 49 0
84 -4 84 -10z m220 0 c0 -6 -35 -10 -85 -10 -50 0 -85 4 -85 10 0 6 35 10 85
10 50 0 85 -4 85 -10z m-3440 -70 l0 -40 -84 0 c-47 0 -87 4 -90 9 -3 5 -3 23
0 40 l7 31 83 0 84 0 0 -40z m228 -2 l3 -38 -90 0 -91 0 0 40 0 41 88 -3 87
-3 3 -37z m2992 2 l0 -40 -90 0 -90 0 0 33 c0 19 3 37 7 40 3 4 44 7 90 7 l83
0 0 -40z m220 0 l0 -40 -85 0 -85 0 0 40 0 40 85 0 85 0 0 -40z m-193 -22 c-3
-7 -5 -2 -5 12 0 14 2 19 5 13 2 -7 2 -19 0 -25z m-2322 -28 c-3 -6 -52 -10
-111 -10 -63 0 -104 4 -104 10 0 6 44 10 111 10 71 0 108 -4 104 -10z m1635 0
c0 -6 -41 -10 -104 -10 -59 0 -108 4 -111 10 -4 6 33 10 104 10 67 0 111 -4
111 -10z m-2560 -20 c0 -6 -35 -10 -85 -10 -50 0 -85 4 -85 10 0 6 35 10 85
10 50 0 85 -4 85 -10z m230 0 c0 -6 -37 -10 -90 -10 -53 0 -90 4 -90 10 0 6
37 10 90 10 53 0 90 -4 90 -10z m2990 0 c0 -6 -37 -10 -90 -10 -53 0 -90 4
-90 10 0 6 37 10 90 10 53 0 90 -4 90 -10z m220 0 c0 -6 -35 -10 -85 -10 -50
0 -85 4 -85 10 0 6 35 10 85 10 50 0 85 -4 85 -10z m-3413 -47 c-3 -10 -5 -2
-5 17 0 19 2 27 5 18 2 -10 2 -26 0 -35z m901 -10 l-3 -48 -107 -3 -108 -3 0
51 0 50 111 0 110 0 -3 -47z m1632 -3 l0 -51 -107 3 -108 3 -3 48 -3 47 110 0
111 0 0 -50z m-4392 -7 l3 -33 -70 0 -71 0 0 35 0 36 68 -3 67 -3 3 -32z m222
2 l0 -35 -70 0 -70 0 0 35 0 35 70 0 70 0 0 -35z m220 0 l0 -35 -65 0 -65 0 0
35 0 35 65 0 65 0 0 -35z m230 0 l0 -35 -70 0 -70 0 0 35 0 35 70 0 70 0 0
-35z m220 0 l0 -35 -70 0 -70 0 0 28 c0 16 3 32 7 35 3 4 35 7 70 7 l63 0 0
-35z m228 -2 l3 -33 -70 0 -71 0 0 35 0 36 68 -3 67 -3 3 -32z m222 2 l0 -35
-70 0 -70 0 0 35 0 35 70 0 70 0 0 -35z m220 0 l0 -35 -65 0 -65 0 0 35 0 35
65 0 65 0 0 -35z m270 -5 l0 -40 -85 0 -85 0 0 40 0 40 85 0 85 0 0 -40z m228
3 l-3 -38 -87 -3 -88 -3 0 41 0 40 91 0 90 0 -3 -37z m2992 -3 l0 -41 -87 3
-88 3 -3 38 -3 37 90 0 91 0 0 -40z m27 18 c-3 -8 -6 -5 -6 6 -1 11 2 17 5 13
3 -3 4 -12 1 -19z m195 -13 c2 -20 2 -38 -1 -40 -2 -3 -42 -5 -88 -5 l-83 0 0
40 0 40 84 0 84 0 4 -35z m228 0 l0 -35 -65 0 -65 0 0 35 0 35 65 0 65 0 0
-35z m230 0 l0 -35 -70 0 -70 0 0 35 0 35 70 0 70 0 0 -35z m220 0 l0 -35 -70
0 -70 0 0 28 c0 16 3 32 7 35 3 4 35 7 70 7 l63 0 0 -35z m228 -2 l3 -33 -70
0 -71 0 0 35 0 36 68 -3 67 -3 3 -32z m222 2 l0 -35 -70 0 -70 0 0 35 0 35 70
0 70 0 0 -35z m220 0 l0 -35 -65 0 -65 0 0 35 0 35 65 0 65 0 0 -35z m230 0
l0 -35 -70 0 -70 0 0 35 0 35 70 0 70 0 0 -35z m220 0 l0 -35 -70 0 -70 0 0
28 c0 16 3 32 7 35 3 4 35 7 70 7 l63 0 0 -35z"/>
<path d="M8940 9686 c-3 -2 -3 -30 -2 -61 l4 -56 86 3 87 3 0 55 0 55 -85 3
c-47 1 -88 1 -90 -2z m155 -56 l0 -35 -67 -3 -68 -3 0 41 0 41 68 -3 67 -3 0
-35z"/>
<path d="M9164 9676 c-3 -7 -4 -33 -2 -57 l3 -44 88 -3 87 -3 0 61 0 60 -85 0
c-64 0 -87 -4 -91 -14z m156 -46 l0 -40 -70 0 -70 0 0 33 c0 19 3 37 7 40 3 4
35 7 70 7 l63 0 0 -40z"/>
<path d="M9389 9685 c0 -3 -1 -29 -1 -57 l-1 -53 78 -3 c43 -2 83 -1 89 1 7 3
10 26 8 61 l-4 56 -84 0 c-46 0 -84 -2 -85 -5z m151 -55 l0 -40 -65 0 -65 0 0
40 0 40 65 0 65 0 0 -40z"/>
<path d="M9610 9630 l0 -61 88 3 87 3 0 55 0 55 -87 3 -88 3 0 -61z m158 -2
l3 -38 -70 0 -71 0 0 40 0 41 68 -3 67 -3 3 -37z"/>
<path d="M9834 9676 c-3 -7 -4 -33 -2 -57 l3 -44 79 -3 c44 -2 84 -1 90 1 7 3
10 26 8 61 l-4 56 -84 0 c-63 0 -86 -4 -90 -14z m156 -46 l0 -41 -67 3 c-62 3
-68 5 -71 26 -7 45 3 52 73 52 l65 0 0 -40z"/>
<path d="M10060 9686 c-3 -2 -3 -30 -2 -61 l4 -56 86 3 87 3 0 55 0 55 -85 3
c-47 1 -88 1 -90 -2z m155 -56 l0 -35 -67 -3 -68 -3 0 41 0 41 68 -3 67 -3 0
-35z"/>
<path d="M10284 9676 c-3 -7 -4 -33 -2 -57 l3 -44 88 -3 87 -3 0 61 0 60 -85
0 c-64 0 -87 -4 -91 -14z m156 -46 l0 -40 -70 0 -70 0 0 33 c0 19 3 37 7 40 3
4 35 7 70 7 l63 0 0 -40z"/>
<path d="M10509 9685 c0 -3 -1 -29 -1 -57 l-1 -53 78 -3 c43 -2 83 -1 89 1 7
3 10 26 8 61 l-4 56 -84 0 c-46 0 -84 -2 -85 -5z m151 -55 l0 -40 -65 0 -65 0
0 40 0 40 65 0 65 0 0 -40z"/>
<path d="M8940 9490 l0 -61 88 3 87 3 3 58 3 57 -91 0 -90 0 0 -60z m155 0 l0
-35 -67 -3 -68 -3 0 41 0 41 68 -3 67 -3 0 -35z"/>
<path d="M9162 9493 l3 -58 85 0 85 0 3 58 3 57 -91 0 -91 0 3 -57z m156 0
l-3 -38 -65 0 -65 0 -3 38 -3 37 71 0 71 0 -3 -37z"/>
<path d="M9386 9493 l2 -58 77 -3 c43 -2 83 -1 89 1 7 3 10 26 8 61 l-4 56
-86 0 -87 0 1 -57z m154 -3 l0 -40 -65 0 -65 0 0 40 0 40 65 0 65 0 0 -40z"/>
<path d="M9610 9490 l0 -61 88 3 87 3 3 58 3 57 -91 0 -90 0 0 -60z m158 3
l-3 -38 -65 0 -65 0 -3 38 -3 37 71 0 71 0 -3 -37z"/>
<path d="M9832 9493 l3 -58 79 -3 c44 -2 84 -1 90 1 7 3 10 26 8 61 l-4 56
-89 0 -90 0 3 -57z m158 -3 l0 -41 -67 3 c-62 3 -68 5 -71 26 -7 45 3 52 73
52 l65 0 0 -40z"/>
<path d="M10060 9490 l0 -61 88 3 87 3 3 58 3 57 -91 0 -90 0 0 -60z m155 0
l0 -35 -67 -3 -68 -3 0 41 0 41 68 -3 67 -3 0 -35z"/>
<path d="M10282 9493 l3 -58 85 0 85 0 3 58 3 57 -91 0 -91 0 3 -57z m156 0
l-3 -38 -65 0 -65 0 -3 38 -3 37 71 0 71 0 -3 -37z"/>
<path d="M10506 9493 l2 -58 77 -3 c43 -2 83 -1 89 1 7 3 10 26 8 61 l-4 56
-86 0 -87 0 1 -57z m154 -3 l0 -40 -65 0 -65 0 0 40 0 40 65 0 65 0 0 -40z"/>
<path d="M9020 9412 l-85 -3 3 -57 4 -57 86 2 87 2 3 52 c2 28 0 55 -5 58 -4
3 -46 5 -93 3z m80 -57 l0 -35 -70 0 -70 0 0 35 0 35 70 0 70 0 0 -35z"/>
<path d="M9163 9404 c-2 -6 -3 -33 -1 -59 l3 -47 85 0 85 0 3 59 3 58 -87 0
c-55 0 -88 -4 -91 -11z m157 -49 l0 -35 -70 0 -70 0 0 35 0 35 70 0 70 0 0
-35z"/>
<path d="M9389 9413 c0 -2 -1 -28 -1 -59 l0 -56 87 0 88 0 0 57 0 57 -87 1
c-47 1 -86 1 -87 0z m151 -58 l0 -35 -65 0 -65 0 0 35 0 35 65 0 65 0 0 -35z"/>
<path d="M9614 9411 c-2 -2 -4 -29 -4 -60 l0 -56 87 2 88 2 0 56 0 57 -83 1
c-46 1 -86 0 -88 -2z m156 -56 l0 -35 -70 0 -70 0 0 35 0 35 70 0 70 0 0 -35z"/>
<path d="M9833 9404 c-7 -18 1 -109 10 -106 4 1 44 2 90 2 l82 0 -3 57 -4 58
-85 0 c-54 0 -87 -4 -90 -11z m157 -49 l0 -35 -70 0 -70 0 0 35 0 35 70 0 70
0 0 -35z"/>
<path d="M10140 9412 l-85 -3 3 -57 4 -57 86 2 87 2 3 52 c2 28 0 55 -5 58 -4
3 -46 5 -93 3z m78 -59 l3 -33 -70 0 -71 0 0 35 0 36 68 -3 67 -3 3 -32z"/>
<path d="M10283 9404 c-2 -6 -3 -33 -1 -59 l3 -47 85 0 85 0 0 57 0 57 -84 1
c-54 1 -85 -2 -88 -9z m157 -49 l0 -35 -70 0 -70 0 0 35 0 35 70 0 70 0 0 -35z"/>
<path d="M10509 9413 c0 -2 -1 -28 -1 -59 l0 -56 87 0 88 0 0 57 0 57 -87 1
c-47 1 -86 1 -87 0z m151 -58 l0 -35 -65 0 -65 0 0 35 0 35 65 0 65 0 0 -35z"/>
<path d="M8945 9274 c-6 -2 -8 -29 -7 -59 l4 -56 86 3 87 3 0 55 0 55 -80 2
c-44 1 -84 0 -90 -3z m150 -54 l0 -35 -67 -3 -68 -3 0 41 0 41 68 -3 67 -3 0
-35z"/>
<path d="M9164 9266 c-3 -7 -4 -33 -2 -57 l3 -44 88 -3 87 -3 0 61 0 60 -85 0
c-64 0 -87 -4 -91 -14z m154 -48 l3 -38 -70 0 -71 0 0 33 c0 19 3 37 7 41 4 4
34 6 68 4 l60 -3 3 -37z"/>
<path d="M9389 9275 c0 -3 -1 -29 -1 -57 l-1 -53 78 -3 c43 -2 83 -1 89 1 7 3
10 26 8 61 l-4 56 -84 0 c-46 0 -84 -2 -85 -5z m151 -55 l0 -40 -65 0 -65 0 0
40 0 40 65 0 65 0 0 -40z"/>
<path d="M9617 9274 c-4 -4 -7 -32 -7 -61 l0 -54 88 3 87 3 0 55 0 55 -80 3
c-45 1 -84 0 -88 -4z m151 -56 l3 -38 -70 0 -71 0 0 40 0 41 68 -3 67 -3 3
-37z"/>
<path d="M9834 9266 c-3 -7 -4 -33 -2 -57 l3 -44 79 -3 c44 -2 84 -1 90 1 7 3
10 26 8 61 l-4 56 -84 0 c-63 0 -86 -4 -90 -14z m156 -46 l0 -41 -67 3 c-62 3
-68 5 -71 26 -7 45 3 52 73 52 l65 0 0 -40z"/>
<path d="M10065 9274 c-6 -2 -8 -29 -7 -59 l4 -56 86 3 87 3 0 55 0 55 -80 2
c-44 1 -84 0 -90 -3z m150 -54 l0 -35 -67 -3 -68 -3 0 41 0 41 68 -3 67 -3 0
-35z"/>
<path d="M10284 9266 c-3 -7 -4 -33 -2 -57 l3 -44 88 -3 87 -3 0 61 0 60 -85
0 c-64 0 -87 -4 -91 -14z m154 -48 l3 -38 -70 0 -71 0 0 33 c0 19 3 37 7 41 4
4 34 6 68 4 l60 -3 3 -37z"/>
<path d="M10509 9275 c0 -3 -1 -29 -1 -57 l-1 -53 78 -3 c43 -2 83 -1 89 1 7
3 10 26 8 61 l-4 56 -84 0 c-46 0 -84 -2 -85 -5z m151 -55 l0 -40 -65 0 -65 0
0 40 0 40 65 0 65 0 0 -40z"/>
<path d="M14449 9685 c0 -3 -1 -29 -1 -57 l-1 -53 78 -3 c43 -2 83 -1 89 1 7
3 10 26 8 61 l-4 56 -84 0 c-46 0 -84 -2 -85 -5z m151 -55 l0 -40 -65 0 -65 0
0 40 0 40 65 0 65 0 0 -40z"/>
<path d="M14677 9684 c-4 -4 -7 -32 -7 -61 l0 -54 88 3 87 3 0 55 0 55 -80 3
c-45 1 -84 0 -88 -4z m151 -56 l3 -38 -70 0 -71 0 0 40 0 41 68 -3 67 -3 3
-37z"/>
<path d="M14897 9683 c-2 -5 -4 -30 -3 -58 l1 -50 79 -3 c44 -2 84 -1 90 1 7
3 10 26 8 61 l-4 56 -83 0 c-46 0 -86 -3 -88 -7z m153 -53 l0 -41 -67 3 c-62
3 -68 5 -71 26 -7 45 3 52 73 52 l65 0 0 -40z"/>
<path d="M15120 9686 c-3 -2 -3 -30 -2 -61 l4 -56 86 3 87 3 0 55 0 55 -85 3
c-47 1 -88 1 -90 -2z m155 -56 l0 -35 -67 -3 -68 -3 0 41 0 41 68 -3 67 -3 0
-35z"/>
<path d="M15344 9676 c-3 -7 -4 -33 -2 -57 l3 -44 88 -3 87 -3 0 61 0 60 -85
0 c-64 0 -87 -4 -91 -14z m156 -46 l0 -40 -70 0 -70 0 0 33 c0 19 3 37 7 40 3
4 35 7 70 7 l63 0 0 -40z"/>
<path d="M15569 9685 c0 -3 -1 -29 -1 -57 l-1 -53 78 -3 c43 -2 83 -1 89 1 7
3 10 26 8 61 l-4 56 -84 0 c-46 0 -84 -2 -85 -5z m151 -55 l0 -40 -65 0 -65 0
0 40 0 40 65 0 65 0 0 -40z"/>
<path d="M15797 9684 c-4 -4 -7 -32 -7 -61 l0 -54 88 3 87 3 0 55 0 55 -80 3
c-45 1 -84 0 -88 -4z m151 -56 l3 -38 -70 0 -71 0 0 40 0 41 68 -3 67 -3 3
-37z"/>
<path d="M16015 9678 c-3 -7 -4 -33 -3 -58 l3 -45 79 -3 c44 -2 84 -1 90 1 7
3 10 26 8 61 l-4 56 -84 0 c-59 0 -86 -4 -89 -12z m155 -48 l0 -41 -67 3 c-62
3 -68 5 -71 26 -7 45 3 52 73 52 l65 0 0 -40z"/>
<path d="M14446 9493 l2 -58 87 0 87 0 2 58 1 57 -90 0 -90 0 1 -57z m154 -3
l0 -40 -65 0 -65 0 0 40 0 40 65 0 65 0 0 -40z"/>
<path d="M14670 9490 l0 -61 88 3 87 3 3 58 3 57 -91 0 -90 0 0 -60z m158 3
l-3 -38 -65 0 -65 0 -3 38 -3 37 71 0 71 0 -3 -37z"/>
<path d="M14892 9493 l3 -58 79 -3 c44 -2 84 -1 90 1 7 3 10 26 8 61 l-4 56
-89 0 -90 0 3 -57z m158 -3 l0 -41 -67 3 c-62 3 -68 5 -71 26 -7 45 3 52 73
52 l65 0 0 -40z"/>
<path d="M15120 9490 l0 -61 88 3 87 3 3 58 3 57 -91 0 -90 0 0 -60z m158 3
l-3 -38 -67 -3 -68 -3 0 41 0 40 71 0 70 0 -3 -37z"/>
<path d="M15342 9493 l3 -58 85 0 85 0 3 58 3 57 -91 0 -91 0 3 -57z m156 0
l-3 -38 -65 0 -65 0 -3 38 -3 37 71 0 71 0 -3 -37z"/>
<path d="M15566 9493 l2 -58 87 0 87 0 2 58 1 57 -90 0 -90 0 1 -57z m154 -3
l0 -40 -65 0 -65 0 0 40 0 40 65 0 65 0 0 -40z"/>
<path d="M15790 9490 l0 -61 88 3 87 3 3 58 3 57 -91 0 -90 0 0 -60z m158 3
l-3 -38 -65 0 -65 0 -3 38 -3 37 71 0 71 0 -3 -37z"/>
<path d="M16012 9493 l3 -58 79 -3 c44 -2 84 -1 90 1 7 3 10 26 8 61 l-4 56
-89 0 -90 0 3 -57z m158 -3 l0 -41 -67 3 c-62 3 -68 5 -71 26 -7 45 3 52 73
52 l65 0 0 -40z"/>
<path d="M14449 9413 c0 -2 -1 -28 -1 -59 l0 -56 87 0 88 0 0 57 0 57 -87 1
c-47 1 -86 1 -87 0z m151 -58 l0 -35 -65 0 -65 0 0 35 0 35 65 0 65 0 0 -35z"/>
<path d="M14674 9411 c-2 -2 -4 -29 -4 -60 l0 -56 87 2 88 2 0 56 0 57 -83 1
c-46 1 -86 0 -88 -2z m156 -56 l0 -35 -70 0 -70 0 0 35 0 35 70 0 70 0 0 -35z"/>
<path d="M14893 9404 c-7 -18 1 -109 10 -106 4 1 44 2 90 2 l82 0 -3 57 -4 58
-85 0 c-54 0 -87 -4 -90 -11z m157 -49 l0 -35 -70 0 -70 0 0 35 0 35 70 0 70
0 0 -35z"/>
<path d="M15200 9412 l-85 -3 3 -57 4 -57 86 2 87 2 3 52 c2 28 0 55 -5 58 -4
3 -46 5 -93 3z m80 -57 l0 -35 -70 0 -70 0 0 35 0 35 70 0 70 0 0 -35z"/>
<path d="M15343 9404 c-7 -18 1 -109 10 -106 4 1 43 2 87 2 l80 0 0 58 0 57
-86 0 c-55 0 -88 -4 -91 -11z m157 -49 l0 -35 -70 0 -70 0 0 35 0 35 70 0 70
0 0 -35z"/>
<path d="M15569 9413 c0 -2 -1 -28 -1 -59 l0 -56 87 0 88 0 0 57 0 57 -87 1
c-47 1 -86 1 -87 0z m151 -58 l0 -35 -65 0 -65 0 0 35 0 35 65 0 65 0 0 -35z"/>
<path d="M15794 9411 c-2 -2 -4 -29 -4 -60 l0 -56 87 2 88 2 0 56 0 57 -83 1
c-46 1 -86 0 -88 -2z m156 -56 l0 -35 -70 0 -70 0 0 35 0 35 70 0 70 0 0 -35z"/>
<path d="M16013 9404 c-7 -18 1 -109 10 -106 4 1 44 2 90 2 l82 0 -3 57 -4 58
-85 0 c-54 0 -87 -4 -90 -11z m157 -49 l0 -35 -70 0 -70 0 0 35 0 35 70 0 70
0 0 -35z"/>
<path d="M14449 9275 c0 -3 -1 -29 -1 -57 l-1 -53 88 0 88 0 0 55 0 55 -87 3
c-47 1 -86 0 -87 -3z m151 -55 l0 -40 -65 0 -65 0 0 40 0 40 65 0 65 0 0 -40z"/>
<path d="M14677 9274 c-4 -4 -7 -32 -7 -61 l0 -54 88 3 87 3 0 55 0 55 -80 3
c-45 1 -84 0 -88 -4z m151 -56 l3 -38 -70 0 -71 0 0 33 c0 19 3 37 7 41 4 4
34 6 68 4 l60 -3 3 -37z"/>
<path d="M14897 9273 c-3 -5 -4 -30 -3 -58 l1 -50 79 -3 c44 -2 84 -1 90 1 7
3 10 26 8 61 l-4 56 -83 0 c-46 0 -86 -3 -88 -7z m153 -53 l0 -41 -67 3 c-62
3 -68 5 -71 26 -7 45 3 52 73 52 l65 0 0 -40z"/>
<path d="M15125 9274 c-6 -2 -8 -29 -7 -59 l4 -56 86 3 87 3 0 55 0 55 -80 2
c-44 1 -84 0 -90 -3z m153 -56 l3 -38 -70 0 -71 0 0 40 0 41 68 -3 67 -3 3
-37z"/>
<path d="M15344 9266 c-3 -7 -4 -33 -2 -57 l3 -44 88 -3 87 -3 0 61 0 60 -85
0 c-64 0 -87 -4 -91 -14z m156 -46 l0 -40 -70 0 -70 0 0 33 c0 19 3 37 7 40 3
4 35 7 70 7 l63 0 0 -40z"/>
<path d="M15569 9275 c0 -3 -1 -29 -1 -57 l-1 -53 88 0 88 0 0 55 0 55 -87 3
c-47 1 -86 0 -87 -3z m151 -55 l0 -40 -65 0 -65 0 0 40 0 40 65 0 65 0 0 -40z"/>
<path d="M15797 9274 c-4 -4 -7 -32 -7 -61 l0 -54 88 3 87 3 0 55 0 55 -80 3
c-45 1 -84 0 -88 -4z m151 -56 l3 -38 -70 0 -71 0 0 40 0 41 68 -3 67 -3 3
-37z"/>
<path d="M16014 9266 c-3 -7 -4 -33 -2 -57 l3 -44 79 -3 c44 -2 84 -1 90 1 7
3 10 26 8 61 l-4 56 -84 0 c-63 0 -86 -4 -90 -14z m156 -46 l0 -41 -67 3 c-62
3 -68 5 -71 26 -7 45 3 52 73 52 l65 0 0 -40z"/>
<path d="M11648 7983 c-79 -35 -128 -62 -128 -71 0 -9 6 -12 18 -7 9 4 32 9
51 12 58 10 61 -1 61 -261 0 -127 -3 -241 -6 -254 -8 -27 -52 -52 -94 -52 -20
0 -30 -5 -30 -15 0 -13 29 -15 200 -15 171 0 200 2 200 15 0 10 -10 15 -33 15
-18 0 -43 7 -55 16 -22 15 -22 15 -22 345 0 307 -1 329 -17 328 -10 0 -75 -25
-145 -56z"/>
<path d="M12204 8029 c-35 -10 -95 -62 -114 -99 -8 -14 -19 -48 -26 -76 -29
-125 33 -239 143 -263 29 -6 58 -9 65 -7 7 3 25 7 40 10 l28 6 -17 -42 c-40
-103 -125 -187 -215 -210 -26 -6 -48 -15 -48 -20 0 -13 50 -9 115 7 152 39
252 116 309 235 29 61 31 73 31 175 0 94 -3 117 -23 160 -51 107 -170 159
-288 124z m106 -29 c10 -5 23 -25 28 -42 16 -51 24 -181 17 -253 l-7 -65 -38
0 c-68 0 -90 54 -90 220 0 79 4 111 16 128 16 24 44 28 74 12z"/>
<path d="M13364 8021 c-214 -97 -215 -596 -1 -686 79 -33 181 -7 230 57 68 89
97 224 78 358 -21 138 -62 213 -144 260 -60 35 -104 38 -163 11z m110 -30 c29
-32 39 -141 33 -366 -6 -229 -14 -271 -54 -281 -35 -9 -61 20 -73 85 -13 69
-13 422 0 491 16 83 56 113 94 71z"/>
<path d="M12754 8016 c-3 -7 -27 -88 -53 -180 -53 -186 -57 -170 44 -181 74
-9 156 -39 195 -72 65 -54 62 -161 -6 -189 -49 -20 -60 -18 -132 27 -80 50
-129 60 -156 30 -39 -43 -15 -100 50 -121 40 -14 151 -8 214 11 56 17 132 90
150 143 7 21 10 66 8 102 -3 50 -10 72 -34 106 -52 74 -110 103 -231 115 -61
6 -63 6 -56 32 13 55 11 54 156 52 151 -3 140 -8 173 82 l21 57 -169 0 c-133
0 -170 -3 -174 -14z"/>
<path d="M15407 15120 c-92 -131 -167 -243 -167 -249 0 -7 243 -183 297 -214
7 -4 20 5 32 22 l21 29 -120 84 c-66 46 -120 87 -120 91 0 4 63 98 141 209 78
111 143 206 145 212 2 6 -11 21 -29 33 l-34 21 -166 -238z"/>
<path d="M15913 14993 c-127 -148 -323 -385 -323 -392 0 -4 12 -19 28 -33 l27
-26 192 229 192 229 -27 25 c-15 14 -30 25 -33 25 -3 0 -28 -26 -56 -57z"/>
<path d="M8942 14872 l-32 -27 197 -226 196 -227 144 126 c79 69 143 129 143
132 0 4 -10 16 -23 28 l-24 22 -109 -95 c-60 -52 -112 -95 -115 -95 -5 0 -224
248 -329 372 -14 17 -17 16 -48 -10z"/>
<path d="M15978 14660 c-152 -74 -280 -138 -284 -143 -4 -4 5 -20 20 -36 l27
-28 82 43 82 42 87 -82 86 -81 -38 -82 -38 -81 34 -33 33 -32 22 49 c11 27 68
159 125 294 l105 244 -34 31 -33 30 -276 -135z m213 -22 c-16 -35 -41 -91 -57
-126 l-29 -63 -64 65 -64 64 119 61 c65 33 120 60 121 60 1 1 -11 -27 -26 -61z"/>
<path d="M8743 14635 c-37 -17 -82 -54 -148 -122 -52 -54 -95 -101 -95 -105 0
-7 281 -285 373 -368 l48 -44 95 95 c115 115 149 174 142 252 -7 76 -42 143
-112 213 -100 100 -202 127 -303 79z m149 -72 c100 -40 188 -150 188 -236 0
-56 -15 -84 -87 -158 l-66 -69 -146 145 c-80 79 -155 151 -166 159 -19 15 -18
17 40 76 98 99 151 118 237 83z"/>
<path d="M16462 14517 l-21 -22 66 -74 67 -74 -42 -36 c-22 -20 -111 -99 -196
-176 l-156 -140 29 -29 29 -29 195 176 195 176 67 -75 67 -75 24 22 c14 13 23
26 22 30 -6 13 -311 349 -318 349 -3 0 -16 -10 -28 -23z"/>
<path d="M8343 14163 c-17 -10 -49 -34 -70 -54 -41 -39 -167 -212 -163 -226 1
-4 108 -85 237 -180 l236 -172 76 102 c119 161 135 208 105 304 -14 46 -31 70
-84 123 -84 84 -143 114 -235 117 -52 3 -78 -1 -102 -14z m160 -80 c52 -19
128 -77 164 -125 30 -41 39 -105 20 -149 -23 -55 -110 -169 -122 -160 -5 5
-86 63 -180 131 -93 68 -172 125 -174 126 -7 6 71 115 104 147 52 51 106 59
188 30z"/>
<path d="M16642 13911 c-133 -87 -245 -161 -247 -163 -4 -4 212 -347 230 -366
4 -4 65 27 65 33 0 2 -43 70 -95 150 -52 80 -95 147 -95 149 0 6 161 108 164
104 50 -80 154 -238 165 -250 15 -17 18 -16 43 5 l26 22 -84 129 c-46 71 -84
132 -84 136 0 4 24 23 53 42 102 68 84 75 184 -79 48 -75 91 -141 95 -146 7
-12 58 17 58 33 0 9 -227 360 -232 360 -2 0 -112 -72 -246 -159z"/>
<path d="M8000 13708 c-11 -18 -20 -35 -20 -38 0 -4 486 -288 511 -298 8 -3
39 50 39 66 0 5 -105 69 -232 142 -128 74 -243 140 -255 148 -21 13 -24 12
-43 -20z"/>
<path d="M16928 13457 c-136 -73 -250 -136 -254 -139 -9 -10 112 -237 145
-271 51 -55 89 -71 166 -71 203 2 373 153 351 314 -7 52 -127 294 -147 297 -8
1 -125 -57 -261 -130z m292 -58 c48 -95 52 -142 15 -204 -44 -76 -146 -134
-244 -140 -77 -5 -116 25 -176 133 -26 46 -45 85 -43 87 15 14 395 211 401
208 4 -3 25 -40 47 -84z"/>
<path d="M7886 13519 l-27 -51 128 -134 c70 -74 151 -160 178 -191 l50 -56
-40 5 c-73 11 -430 68 -452 73 -18 4 -27 -4 -51 -49 l-29 -54 257 -136 c141
-75 262 -136 268 -136 6 0 19 14 28 32 19 37 44 20 -215 155 -108 57 -189 103
-179 103 9 0 121 -18 248 -40 127 -22 234 -40 236 -40 2 0 12 17 23 38 l19 37
-149 155 c-82 85 -159 168 -171 184 -20 27 -16 26 73 -21 52 -28 146 -78 210
-112 l116 -61 18 35 c11 19 17 36 15 38 -7 6 -518 277 -522 277 -2 0 -16 -23
-32 -51z"/>
<path d="M17523 12795 l-33 -14 32 -90 c18 -50 30 -93 26 -96 -3 -3 -111 -42
-239 -86 -129 -45 -237 -84 -242 -88 -4 -4 -1 -24 8 -44 13 -31 19 -36 33 -28
23 12 455 161 468 161 5 0 23 -39 39 -86 17 -48 35 -88 41 -91 6 -2 23 1 37 6
24 10 26 13 16 38 -6 15 -42 118 -80 227 -37 109 -70 200 -71 202 -2 1 -18 -4
-35 -11z"/>
<path d="M7468 12494 c-10 -22 -9 -27 5 -36 52 -29 75 -83 59 -142 -10 -33 -9
-35 19 -45 22 -8 31 -7 34 2 28 91 38 117 43 117 8 0 97 -26 254 -74 64 -20
121 -36 126 -36 11 0 35 60 27 68 -4 4 -542 172 -551 172 -3 0 -10 -12 -16
-26z"/>
<path d="M17403 12190 c-114 -37 -183 -108 -203 -207 -28 -132 35 -275 142
-327 131 -62 297 -33 401 70 54 53 70 95 70 184 0 86 -18 144 -63 200 -68 86
-221 121 -347 80z m214 -79 c96 -28 151 -164 108 -268 -22 -53 -42 -72 -110
-104 -48 -23 -74 -29 -128 -29 -103 0 -161 30 -197 100 -52 102 -27 206 62
264 62 41 190 58 265 37z"/>
<path d="M7857 12023 c-19 -70 -20 -69 28 -80 44 -10 45 -10 51 16 3 14 8 33
10 43 6 20 -1 24 -48 33 -30 6 -37 4 -41 -12z"/>
<path d="M7447 11904 c-102 -32 -187 -157 -187 -273 0 -117 53 -201 158 -253
62 -31 73 -33 172 -33 97 0 109 2 152 27 94 56 138 141 138 267 0 163 -119
271 -305 278 -52 2 -97 -3 -128 -13z m242 -97 c79 -32 114 -79 119 -161 5 -82
-10 -126 -58 -169 -52 -47 -127 -64 -216 -47 -147 28 -226 131 -193 253 36
137 184 189 348 124z"/>
<path d="M17456 11270 c-74 -29 -113 -60 -143 -115 -24 -43 -28 -61 -28 -130
0 -67 5 -88 27 -130 14 -27 34 -57 44 -67 28 -24 94 -57 132 -64 32 -6 32 -6
32 32 0 38 -2 40 -50 57 -106 38 -148 140 -101 242 34 75 104 108 221 106 130
-2 195 -35 225 -116 34 -88 6 -182 -63 -215 -28 -13 -32 -20 -32 -58 0 -40 2
-43 23 -36 104 32 160 117 159 241 -1 125 -64 216 -176 255 -71 24 -205 23
-270 -2z"/>
<path d="M7240 11223 l0 -40 61 -7 c34 -3 114 -6 178 -7 64 -1 141 -4 170 -7
l55 -7 -233 -134 c-128 -73 -234 -139 -236 -145 -2 -6 -5 -30 -8 -52 l-5 -42
177 -6 c97 -3 230 -9 297 -12 l121 -6 6 38 c4 21 5 40 2 42 -2 2 -106 8 -231
13 -125 5 -229 10 -231 13 -2 2 103 66 234 142 l238 139 3 46 3 46 -173 7
c-95 3 -230 9 -300 12 l-128 7 0 -40z"/>
<path d="M17267 10463 c-15 -119 -26 -218 -24 -219 1 -1 18 -4 37 -6 l35 -3
21 173 c12 95 23 174 25 176 7 5 174 -16 181 -23 4 -3 -1 -76 -11 -161 -11
-85 -19 -155 -18 -156 1 -1 18 -4 38 -7 l37 -5 18 160 19 160 80 -7 c44 -3 84
-11 89 -16 8 -7 -2 -121 -28 -334 0 -5 15 -11 34 -13 l36 -3 26 213 c14 117
25 214 24 215 -2 3 -568 73 -584 73 -5 0 -21 -98 -35 -217z"/>
<path d="M7251 10452 c2 -65 7 -70 159 -138 79 -36 146 -66 147 -68 2 -2 -55
-48 -127 -102 l-130 -99 6 -45 c4 -25 8 -46 9 -48 1 -1 71 55 155 124 85 69
161 129 170 133 8 5 66 14 128 21 l113 13 -7 41 c-3 23 -7 42 -8 43 -1 1 -54
-5 -119 -14 -106 -13 -121 -13 -150 0 -18 9 -103 50 -189 91 l-158 75 1 -27z"/>
<path d="M17232 10138 c-8 -29 -7 -40 1 -43 7 -3 104 -25 217 -51 113 -25 210
-49 217 -53 7 -3 -106 -47 -250 -97 l-261 -91 -12 -46 -12 -46 107 -25 c329
-77 472 -108 477 -104 3 3 7 21 10 40 l6 34 -208 49 c-115 26 -217 51 -227 54
-11 4 76 38 243 95 l260 89 11 39 c6 22 8 45 6 52 -3 7 -78 29 -168 49 -90 21
-219 50 -286 66 l-121 28 -10 -39z"/>
<path d="M7375 9913 c-11 -3 -24 -9 -29 -13 -5 -5 14 -107 44 -240 l54 -231
30 7 c17 3 33 8 35 10 2 2 -5 46 -17 96 -11 51 -19 94 -17 97 3 2 105 27 227
56 123 28 236 55 251 59 26 6 28 10 22 39 -4 18 -10 35 -14 39 -5 5 -312 -62
-483 -105 -27 -7 -27 -7 -49 93 -13 55 -25 99 -29 99 -3 -1 -14 -3 -25 -6z"/>
<path d="M7765 9428 c-154 -50 -281 -92 -283 -93 -1 -1 4 -19 12 -41 8 -24 19
-38 27 -35 13 3 521 167 546 176 9 3 10 12 1 37 -6 18 -13 36 -17 40 -3 3
-132 -35 -286 -84z"/>
<path d="M17591 9438 c-13 -40 -27 -83 -32 -94 -8 -21 -12 -20 -250 57 -134
43 -246 79 -250 79 -10 0 -30 -61 -23 -71 2 -5 105 -41 227 -80 122 -39 232
-75 244 -80 l22 -8 -29 -87 c-17 -48 -30 -91 -30 -95 0 -7 61 -32 66 -27 12
14 144 452 137 458 -4 5 -19 11 -33 15 -24 6 -27 2 -49 -67z"/>
<path d="M7935 9300 c-82 -42 -100 -97 -79 -243 8 -56 15 -115 16 -130 2 -42
-31 -70 -83 -70 -36 0 -46 5 -70 34 -32 39 -54 117 -44 157 3 15 20 41 36 58
27 28 28 33 18 62 -6 18 -15 32 -19 32 -4 0 -30 -20 -57 -44 l-48 -44 0 -83
c0 -69 4 -92 23 -129 53 -102 122 -141 211 -120 58 14 97 48 112 100 10 32 9
59 -6 149 -26 162 -9 213 72 213 69 0 133 -97 133 -202 0 -37 -5 -48 -41 -82
-39 -37 -40 -40 -29 -73 10 -32 13 -33 38 -24 43 16 80 58 97 110 27 79 -4
189 -78 283 -52 66 -128 83 -202 46z"/>
<path d="M16926 9134 c-9 -20 -16 -38 -14 -39 2 -2 50 -24 108 -50 58 -25 109
-50 113 -54 9 -9 -57 -163 -90 -208 -30 -41 -69 -43 -147 -9 -29 13 -67 27
-83 30 -26 6 -30 3 -51 -39 -27 -57 -27 -57 3 -49 16 4 55 -5 110 -25 80 -29
117 -33 156 -17 12 5 20 -2 29 -25 28 -67 113 -115 182 -104 65 11 105 63 181
232 36 82 63 151 59 154 -7 6 -528 239 -535 239 -2 0 -11 -16 -21 -36z m398
-223 c42 -19 66 -36 63 -44 -23 -58 -74 -167 -90 -190 -10 -15 -28 -32 -39
-38 -29 -15 -81 -3 -113 27 -24 22 -27 31 -22 72 2 26 23 86 46 134 46 99 30
95 155 39z"/>
<path d="M8289 8898 c-1 -5 -3 -12 -4 -18 -1 -5 -3 -14 -4 -19 0 -5 -33 -28
-71 -51 -77 -46 -120 -90 -120 -122 0 -14 -5 -18 -16 -14 -67 26 -132 10 -186
-44 -35 -34 -38 -42 -38 -91 0 -60 17 -102 107 -263 31 -55 57 -103 59 -105 3
-3 490 264 512 282 10 8 8 16 -8 41 -11 17 -26 30 -32 28 -7 -2 -57 -29 -112
-59 -78 -44 -100 -53 -107 -42 -34 52 -100 182 -105 207 -5 23 0 36 26 66 18
20 36 36 42 36 5 0 34 16 64 35 l54 35 -19 38 c-26 49 -40 69 -42 60z m-219
-305 c23 -13 112 -152 138 -214 3 -7 -153 -99 -167 -99 -10 0 -108 179 -116
213 -13 49 42 108 108 116 5 1 22 -7 37 -16z"/>
<path d="M16716 8675 c-9 -13 -16 -28 -16 -33 0 -5 25 -40 55 -78 49 -62 53
-71 41 -89 -7 -11 -35 -55 -62 -97 -27 -43 -56 -78 -64 -78 -8 1 -42 7 -75 15
-33 8 -67 15 -76 15 -16 0 -45 -35 -51 -61 -2 -8 95 -33 303 -78 l306 -67 26
40 25 40 -77 100 c-42 56 -128 167 -190 249 -62 81 -116 147 -120 147 -5 0
-16 -11 -25 -25z m224 -346 c44 -56 79 -104 77 -106 -5 -5 -235 51 -243 59 -5
6 75 148 83 148 2 0 39 -46 83 -101z"/>
<path d="M8547 8377 l-28 -22 101 -144 c79 -114 98 -147 88 -156 -7 -7 -43
-32 -79 -58 l-66 -46 -93 134 -93 134 -29 -20 c-15 -11 -28 -23 -28 -26 0 -3
41 -64 91 -135 50 -71 89 -130 88 -132 -103 -72 -139 -96 -146 -96 -4 1 -33
37 -63 82 -30 44 -74 107 -98 140 -42 58 -43 58 -67 42 -14 -9 -25 -20 -25
-25 0 -5 55 -88 122 -184 107 -152 124 -173 138 -161 8 7 116 84 240 171 124
87 227 159 228 161 3 2 -247 364 -252 364 0 0 -14 -10 -29 -23z"/>
<path d="M16317 8080 c-64 -82 -117 -151 -117 -153 0 -2 13 -13 29 -25 l29
-21 92 120 92 119 37 -29 c20 -15 112 -88 206 -161 l169 -132 27 34 c15 18 27
33 26 34 -1 0 -107 83 -235 182 -128 100 -234 182 -235 182 -2 0 -56 -67 -120
-150z"/>
<path d="M8925 7811 c-38 -15 -168 -65 -287 -111 -120 -45 -218 -85 -218 -89
1 -3 13 -20 28 -37 l27 -32 240 98 c132 54 241 97 243 96 1 -2 -57 -103 -129
-225 l-130 -222 26 -35 c19 -24 31 -32 37 -26 6 6 77 131 159 279 l147 268
-31 33 c-17 17 -33 32 -36 31 -4 0 -37 -13 -76 -28z"/>
<path d="M15949 7610 c-20 -3 -56 -18 -81 -33 -129 -75 -177 -222 -115 -344
l27 -53 29 32 29 33 -19 37 c-36 70 -22 144 38 199 41 39 66 49 118 49 59 0
116 -29 175 -90 85 -87 109 -174 70 -255 -41 -84 -135 -126 -210 -95 -28 12
-33 11 -55 -10 -14 -13 -25 -27 -25 -32 0 -5 21 -18 46 -29 150 -67 344 78
344 257 0 76 -30 140 -100 217 -81 89 -183 133 -271 117z"/>
<path d="M9190 7503 c-35 -38 -128 -134 -207 -214 l-143 -145 31 -30 31 -29
209 215 209 214 -27 28 c-15 15 -30 28 -33 28 -4 0 -35 -30 -70 -67z"/>
<path d="M9213 7227 c-98 -121 -183 -226 -190 -233 -9 -9 -8 -15 5 -26 51 -42
40 -50 193 139 78 97 145 171 147 165 2 -6 -11 -127 -29 -269 l-32 -257 38
-33 c21 -18 42 -30 46 -26 4 5 89 109 189 233 l182 225 -29 22 c-15 13 -31 22
-35 20 -4 -1 -73 -82 -153 -181 -80 -98 -145 -170 -145 -161 0 10 14 134 31
277 l31 261 -35 32 -35 32 -179 -220z"/>
<path d="M15543 7292 l-33 -27 85 -107 85 -107 -111 -88 c-61 -49 -117 -91
-123 -95 -8 -5 -42 31 -96 102 l-83 108 -33 -26 c-18 -15 -30 -31 -26 -37 22
-36 356 -455 363 -455 4 0 20 11 36 24 l27 24 -72 91 c-40 50 -72 94 -72 98 1
5 54 49 120 100 l118 92 73 -95 c39 -52 74 -94 78 -94 3 0 19 11 36 24 22 18
27 27 19 37 -6 8 -84 109 -174 224 -90 116 -168 215 -174 222 -8 9 -19 5 -43
-15z"/>
<path d="M9804 7005 c-48 -25 -83 -67 -200 -239 l-107 -159 29 -24 c16 -12 32
-23 35 -23 4 0 48 62 99 138 148 218 181 252 245 252 30 0 90 -29 122 -59 31
-30 46 -83 35 -125 -6 -19 -60 -109 -121 -200 -61 -90 -112 -169 -113 -175 -2
-6 11 -20 28 -31 25 -16 33 -18 41 -8 41 52 227 334 238 362 21 49 19 110 -4
155 -22 42 -84 102 -133 127 -47 24 -155 29 -194 9z"/>
<path d="M15067 6947 c-28 -22 -28 -22 -10 -47 11 -14 81 -122 158 -240 76
-118 141 -219 146 -224 4 -4 22 3 41 15 l35 24 -69 105 c-38 58 -110 169 -161
247 -51 79 -96 143 -102 143 -5 0 -23 -10 -38 -23z"/>
<path d="M14917 6859 c-36 -19 -37 -20 -22 -43 23 -35 213 -391 210 -394 -1
-1 -111 60 -245 137 -263 152 -244 146 -309 102 -11 -7 13 -59 118 -257 72
-137 135 -255 140 -262 6 -11 15 -10 44 4 l37 18 -34 60 c-111 200 -187 357
-170 348 10 -6 120 -69 242 -140 l224 -130 44 25 45 25 -24 42 c-13 22 -77
141 -142 264 -64 122 -118 222 -119 222 0 -1 -18 -10 -39 -21z"/>
<path d="M10486 6663 l-16 -34 136 -64 c89 -42 134 -69 131 -77 -3 -7 -50
-111 -106 -230 -56 -119 -101 -220 -101 -225 0 -5 16 -17 35 -26 l36 -17 33
73 c18 39 75 161 126 270 51 109 91 199 89 201 -2 2 -81 39 -175 83 l-172 80
-16 -34z"/>
<path d="M14467 6621 l-38 -14 2 -89 c1 -49 -2 -93 -7 -97 -13 -12 -192 -81
-209 -81 -8 0 -15 3 -15 8 -1 4 -24 33 -53 65 l-52 58 -42 -17 -42 -17 198
-221 c109 -122 206 -228 215 -235 14 -12 23 -12 56 -1 l40 13 -1 151 c-1 83
-4 228 -8 321 l-6 171 -38 -15z m-23 -412 c4 -72 5 -133 3 -135 -2 -2 -42 43
-89 99 l-86 102 77 32 c42 17 79 32 82 32 3 1 9 -58 13 -130z"/>
<path d="M10891 6301 c1 -124 4 -268 8 -320 l6 -94 39 -14 c32 -11 42 -11 52
-1 30 33 394 477 394 481 0 3 -11 8 -24 11 -13 3 -31 8 -38 11 -9 4 -34 -19
-69 -64 -30 -39 -58 -70 -64 -70 -5 0 -57 17 -115 38 l-105 37 3 90 3 89 -45
16 -46 17 1 -227z m194 -104 l63 -22 -80 -100 c-44 -55 -82 -102 -84 -104 -2
-2 -4 55 -4 128 0 130 0 132 21 126 11 -4 49 -17 84 -28z"/>
<path d="M13682 6349 c-18 -4 -35 -9 -38 -11 -2 -3 14 -106 35 -229 22 -123
39 -225 37 -227 -2 -1 -88 89 -190 202 l-187 205 -37 -6 c-20 -3 -41 -9 -45
-13 -4 -3 15 -135 43 -292 27 -157 50 -288 50 -290 0 -9 72 5 76 16 2 6 -14
110 -35 231 -22 121 -38 221 -37 222 1 2 85 -89 186 -202 l184 -206 45 7 c25
4 48 8 50 10 4 3 -87 532 -98 570 -5 17 -11 19 -39 13z"/>
<path d="M11420 6348 c0 -2 -22 -132 -50 -288 -27 -156 -50 -287 -50 -291 0
-4 19 -10 43 -14 23 -3 49 -8 57 -11 11 -3 50 61 140 226 68 126 126 228 127
226 1 -1 18 -103 37 -227 20 -123 38 -238 41 -255 5 -29 10 -32 62 -43 31 -6
57 -10 59 -8 6 6 105 580 100 584 -12 13 -75 20 -79 9 -2 -6 -21 -113 -42
-238 -21 -126 -40 -227 -41 -225 -1 1 -19 112 -39 247 -19 135 -39 248 -43
251 -4 4 -23 9 -42 13 l-35 6 -120 -220 c-65 -120 -120 -218 -122 -217 -1 2
16 106 38 231 22 125 39 229 37 231 -5 5 -78 18 -78 13z"/>
<path d="M12050 6250 c0 -5 5 -12 10 -15 6 -4 10 -53 10 -115 0 -100 2 -111
24 -136 l23 -28 -27 -23 c-59 -49 -74 -125 -41 -199 29 -64 76 -81 271 -100
91 -9 165 -13 169 -8 5 5 18 131 30 279 12 149 23 279 24 290 2 17 -5 21 -39
23 l-41 3 -6 -58 c-3 -32 -9 -89 -13 -127 l-7 -68 -101 7 c-111 8 -159 22
-175 54 -7 12 -10 60 -9 115 2 52 1 96 -2 99 -11 9 -100 16 -100 7z m373 -357
c10 -6 -1 -185 -12 -194 -13 -12 -229 17 -255 34 -48 32 -47 119 2 158 25 20
34 21 142 14 63 -4 119 -9 123 -12z"/>
<path d="M12879 6246 c-4 -4 -19 -9 -35 -12 -66 -12 -147 -78 -176 -144 -61
-139 -16 -330 98 -417 102 -77 291 -55 382 44 54 60 65 96 66 213 1 95 -2 110
-27 162 -30 62 -81 112 -135 135 -38 16 -163 29 -173 19z m153 -93 c18 -10 46
-40 62 -67 25 -40 30 -60 34 -129 5 -100 -8 -152 -49 -196 -99 -104 -270 -73
-328 59 -27 64 -34 119 -22 186 21 111 107 180 213 171 32 -3 72 -14 90 -24z"/>
</g>
</svg>
